<svg width="56" height="38" viewBox="0 0 56 38" fill="none" xmlns="http://www.w3.org/2000/svg">
<mask id="path-1-inside-1_404_130" fill="white">
<path d="M51.386 24.0333C51.386 17.6593 48.9213 11.5463 44.5342 7.0392C40.1471 2.53208 34.1969 4.81227e-07 27.9925 0C21.7882 -4.81226e-07 15.8379 2.53208 11.4508 7.0392C7.06367 11.5463 4.599 17.6593 4.599 24.0333L8.14017 24.0333C8.14017 18.6242 10.2318 13.4365 13.9548 9.61168C17.6778 5.78681 22.7273 3.63803 27.9925 3.63803C33.2577 3.63803 38.3072 5.78682 42.0302 9.61168C45.7533 13.4365 47.8448 18.6242 47.8448 24.0333H51.386Z"/>
</mask>
<path d="M51.386 24.0333C51.386 17.6593 48.9213 11.5463 44.5342 7.0392C40.1471 2.53208 34.1969 4.81227e-07 27.9925 0C21.7882 -4.81226e-07 15.8379 2.53208 11.4508 7.0392C7.06367 11.5463 4.599 17.6593 4.599 24.0333L8.14017 24.0333C8.14017 18.6242 10.2318 13.4365 13.9548 9.61168C17.6778 5.78681 22.7273 3.63803 27.9925 3.63803C33.2577 3.63803 38.3072 5.78682 42.0302 9.61168C45.7533 13.4365 47.8448 18.6242 47.8448 24.0333H51.386Z" fill="#C4C4C4"/>
<path d="M51.386 24.0333V38.2711H65.6238V24.0333H51.386ZM4.599 24.0333L-9.63877 24.0333L-9.63877 38.2711L4.59899 38.2711L4.599 24.0333ZM8.14017 24.0333L8.14016 38.2711L22.3779 38.2711L22.3779 24.0333L8.14017 24.0333ZM47.8448 24.0333H33.6071V38.2711H47.8448V24.0333ZM65.6238 24.0333C65.6238 14.0053 61.7498 4.31322 54.7367 -2.89169L34.3317 16.9701C36.0929 18.7794 37.1483 21.3133 37.1483 24.0333H65.6238ZM54.7367 -2.89169C47.7109 -10.1097 38.0988 -14.2378 27.9925 -14.2378L27.9925 14.2378C30.2949 14.2378 32.5832 15.1738 34.3317 16.9701L54.7367 -2.89169ZM27.9925 -14.2378C17.8862 -14.2378 8.27409 -10.1097 1.24829 -2.8917L21.6533 16.9701C23.4018 15.1738 25.6901 14.2378 27.9925 14.2378L27.9925 -14.2378ZM1.24829 -2.8917C-5.76481 4.31322 -9.63877 14.0053 -9.63877 24.0333L18.8368 24.0333C18.8368 21.3133 19.8921 18.7794 21.6533 16.9701L1.24829 -2.8917ZM4.59899 38.2711L8.14016 38.2711L8.14019 9.79557L4.59901 9.79557L4.59899 38.2711ZM22.3779 24.0333C22.3779 22.2782 23.0602 20.6696 24.1573 19.5426L3.75228 -0.31922C-2.59672 6.20343 -6.09759 14.9702 -6.09759 24.0333L22.3779 24.0333ZM24.1573 19.5426C25.2417 18.4286 26.6293 17.8758 27.9925 17.8758L27.9925 -10.5997C18.8254 -10.5997 10.114 -6.85492 3.75228 -0.31922L24.1573 19.5426ZM27.9925 17.8758C29.3557 17.8758 30.7433 18.4285 31.8277 19.5426L52.2327 -0.319217C45.871 -6.85492 37.1596 -10.5997 27.9925 -10.5997L27.9925 17.8758ZM31.8277 19.5426C32.9248 20.6697 33.6071 22.2782 33.6071 24.0333H62.0826C62.0826 14.9702 58.5817 6.20343 52.2327 -0.319217L31.8277 19.5426ZM47.8448 38.2711H51.386V9.79558H47.8448V38.2711Z" fill="#619DE4" mask="url(#path-1-inside-1_404_130)"/>
<rect x="1" y="16.6383" width="53.985" height="3.69744" fill="#619DE4"/>
<path d="M7.5 33.44V35H0.996V26.6H7.344V28.16H2.928V29.984H6.828V31.496H2.928V33.44H7.5ZM9.28678 26.6H13.1028C14.0148 26.6 14.8188 26.776 15.5148 27.128C16.2188 27.472 16.7628 27.96 17.1468 28.592C17.5388 29.224 17.7348 29.96 17.7348 30.8C17.7348 31.64 17.5388 32.376 17.1468 33.008C16.7628 33.64 16.2188 34.132 15.5148 34.484C14.8188 34.828 14.0148 35 13.1028 35H9.28678V26.6ZM13.0068 33.404C13.8468 33.404 14.5148 33.172 15.0108 32.708C15.5148 32.236 15.7668 31.6 15.7668 30.8C15.7668 30 15.5148 29.368 15.0108 28.904C14.5148 28.432 13.8468 28.196 13.0068 28.196H11.2308V33.404H13.0068ZM23.1728 35.144C21.9728 35.144 21.0368 34.812 20.3648 34.148C19.7008 33.484 19.3688 32.536 19.3688 31.304V26.6H21.3128V31.232C21.3128 32.736 21.9368 33.488 23.1848 33.488C23.7928 33.488 24.2568 33.308 24.5768 32.948C24.8968 32.58 25.0568 32.008 25.0568 31.232V26.6H26.9768V31.304C26.9768 32.536 26.6408 33.484 25.9688 34.148C25.3048 34.812 24.3728 35.144 23.1728 35.144ZM33.1579 35.144C32.3019 35.144 31.5259 34.96 30.8299 34.592C30.1419 34.216 29.5979 33.7 29.1979 33.044C28.8059 32.38 28.6099 31.632 28.6099 30.8C28.6099 29.968 28.8059 29.224 29.1979 28.568C29.5979 27.904 30.1419 27.388 30.8299 27.02C31.5259 26.644 32.3059 26.456 33.1699 26.456C33.8979 26.456 34.5539 26.584 35.1379 26.84C35.7299 27.096 36.2259 27.464 36.6259 27.944L35.3779 29.096C34.8099 28.44 34.1059 28.112 33.2659 28.112C32.7459 28.112 32.2819 28.228 31.8739 28.46C31.4659 28.684 31.1459 29 30.9139 29.408C30.6899 29.816 30.5779 30.28 30.5779 30.8C30.5779 31.32 30.6899 31.784 30.9139 32.192C31.1459 32.6 31.4659 32.92 31.8739 33.152C32.2819 33.376 32.7459 33.488 33.2659 33.488C34.1059 33.488 34.8099 33.156 35.3779 32.492L36.6259 33.644C36.2259 34.132 35.7299 34.504 35.1379 34.76C34.5459 35.016 33.8859 35.144 33.1579 35.144ZM43.5466 33.2H39.6466L38.9026 35H36.9106L40.6546 26.6H42.5746L46.3306 35H44.2906L43.5466 33.2ZM42.9346 31.724L41.6026 28.508L40.2706 31.724H42.9346ZM52.7941 35L51.1741 32.66H51.0781H49.3861V35H47.4421V26.6H51.0781C51.8221 26.6 52.4661 26.724 53.0101 26.972C53.5621 27.22 53.9861 27.572 54.2821 28.028C54.5781 28.484 54.7261 29.024 54.7261 29.648C54.7261 30.272 54.5741 30.812 54.2701 31.268C53.9741 31.716 53.5501 32.06 52.9981 32.3L54.8821 35H52.7941ZM52.7581 29.648C52.7581 29.176 52.6061 28.816 52.3021 28.568C51.9981 28.312 51.5541 28.184 50.9701 28.184H49.3861V31.112H50.9701C51.5541 31.112 51.9981 30.984 52.3021 30.728C52.6061 30.472 52.7581 30.112 52.7581 29.648Z" fill="#619DE4"/>
</svg>
